<?xml version="1.0" encoding="UTF-8"?>
<!--Generator: Apple Native CoreSVG 232.5-->
<!DOCTYPE svg
PUBLIC "-//W3C//DTD SVG 1.1//EN"
       "http://www.w3.org/Graphics/SVG/1.1/DTD/svg11.dtd">
<svg version="1.1" xmlns="http://www.w3.org/2000/svg" xmlns:xlink="http://www.w3.org/1999/xlink" width="24.9021" height="24.9057">
 <g>
  <rect height="24.9057" opacity="0" width="24.9021" x="0" y="0"/>
  <path d="M12.4465 24.9057C19.2928 24.9057 24.9021 19.2964 24.9021 12.4592C24.9021 5.62556 19.2893 0.0126953 12.4429 0.0126953C5.60931 0.0126953 0 5.62556 0 12.4592C0 19.2964 5.61286 24.9057 12.4465 24.9057Z" fill="#ffffff" fill-opacity="0.85"/>
  <path d="M4.48502 12.4592C4.48502 12.2546 4.53733 12.0463 4.90802 11.6939L10.7331 6.2771C10.9312 6.10443 11.1013 5.97951 11.3435 5.97951C11.696 5.97951 11.8961 6.24866 11.8961 6.58128L11.8961 9.8729L18.3513 9.8729C19.2735 9.8729 19.7697 10.3599 19.7697 11.244L19.7697 13.7419C19.7697 14.626 19.2735 15.113 18.3513 15.113L11.8961 15.113L11.8961 18.3513C11.8961 18.6911 11.696 18.9389 11.3506 18.9389C11.1049 18.9389 10.9205 18.814 10.7331 18.6464L4.90802 13.2209C4.53733 12.8756 4.48502 12.6603 4.48502 12.4592Z" fill="#1e1e1e"/>
 </g>
</svg>
