<?xml version="1.0" encoding="UTF-8"?>
<!--Generator: Apple Native CoreSVG 232.5-->
<!DOCTYPE svg
PUBLIC "-//W3C//DTD SVG 1.1//EN"
       "http://www.w3.org/Graphics/SVG/1.1/DTD/svg11.dtd">
<svg version="1.1" xmlns="http://www.w3.org/2000/svg" xmlns:xlink="http://www.w3.org/1999/xlink" width="27.9272" height="26.9611">
 <g>
  <rect height="26.9611" opacity="0" width="27.9272" x="0" y="0"/>
  <path d="M17.123 24.608L10.8007 24.608L10.8007 15.805C10.8007 15.349 11.1029 15.0504 11.5589 15.0504L16.3684 15.0504C16.8244 15.0504 17.123 15.349 17.123 15.805ZM3.21144 23.2704C3.21144 24.6969 4.06762 25.5459 5.50119 25.5459L22.4789 25.5459C23.9124 25.5459 24.7651 24.6969 24.7651 23.2704L24.7651 11.3237L14.7865 2.95136C14.231 2.48113 13.7145 2.49383 13.1626 2.95136L3.21144 11.3054ZM0 11.48C0 11.7172 0.186884 11.929 0.48854 11.929C0.652064 11.929 0.75211 11.8574 0.872468 11.7604L13.4251 1.22426C13.7775 0.915512 14.1386 0.869811 14.555 1.22426L27.0619 11.7604C27.1787 11.8574 27.2787 11.929 27.4423 11.929C27.719 11.929 27.9272 11.7436 27.9272 11.4907C27.9272 11.3018 27.8643 11.185 27.6982 11.0479L15.1405 0.469605C14.4204-0.156535 13.5906-0.156535 12.8396 0.469605L0.223445 11.0479C0.0629714 11.185 0 11.316 0 11.48ZM22.6845 7.33571L24.7651 9.08567L24.7651 3.3027C24.7651 2.96347 24.5376 2.74511 24.2166 2.74511L23.233 2.74511C22.9156 2.74511 22.6845 2.96347 22.6845 3.3027Z" fill="#000000"/>
 </g>
</svg>
