<?xml version="1.0" encoding="UTF-8"?>
<!--Generator: Apple Native CoreSVG 232.5-->
<!DOCTYPE svg
PUBLIC "-//W3C//DTD SVG 1.1//EN"
       "http://www.w3.org/Graphics/SVG/1.1/DTD/svg11.dtd">
<svg version="1.1" xmlns="http://www.w3.org/2000/svg" xmlns:xlink="http://www.w3.org/1999/xlink" width="17.8919" height="18.3824">
 <g>
  <rect height="18.3824" opacity="0" width="17.8919" x="0" y="0"/>
  <path d="M1.97286 14.7205L15.9138 14.7205C17.2105 14.7205 17.8919 14.0326 17.8919 12.7559L17.8919 5.60129C17.8919 4.32658 17.2105 3.63868 15.9138 3.63868L1.97286 3.63868C0.677347 3.63868 0 4.31398 0 5.60129L0 12.7559C0 14.0432 0.677347 14.7205 1.97286 14.7205ZM1.99279 14.1794C1.04416 14.1794 0.546412 13.6837 0.546412 12.7269L0.546412 5.6303C0.546412 4.67347 1.04416 4.17982 1.99279 4.17982L15.8971 4.17982C16.8173 4.17982 17.3455 4.67347 17.3455 5.6303L17.3455 12.7269C17.3455 13.6837 16.8173 14.1794 15.8971 14.1794ZM2.72052 7.37552L3.27834 7.37552C3.47814 7.37552 3.58156 7.26682 3.58156 7.06907L3.58156 6.51653C3.58156 6.31672 3.47814 6.20803 3.27834 6.20803L2.72052 6.20803C2.52804 6.20803 2.41935 6.31672 2.41935 6.51653L2.41935 7.06907C2.41935 7.26682 2.52804 7.37552 2.72052 7.37552ZM5.07892 7.37552L5.63673 7.37552C5.82921 7.37552 5.93791 7.26682 5.93791 7.06907L5.93791 6.51653C5.93791 6.31672 5.82921 6.20803 5.63673 6.20803L5.07892 6.20803C4.87911 6.20803 4.77042 6.31672 4.77042 6.51653L4.77042 7.06907C4.77042 7.26682 4.87911 7.37552 5.07892 7.37552ZM7.43731 7.37552L7.98781 7.37552C8.18761 7.37552 8.2963 7.26682 8.2963 7.06907L8.2963 6.51653C8.2963 6.31672 8.18761 6.20803 7.98781 6.20803L7.43731 6.20803C7.23751 6.20803 7.12882 6.31672 7.12882 6.51653L7.12882 7.06907C7.12882 7.26682 7.23751 7.37552 7.43731 7.37552ZM9.78839 7.37552L10.3462 7.37552C10.546 7.37552 10.6494 7.26682 10.6494 7.06907L10.6494 6.51653C10.6494 6.31672 10.546 6.20803 10.3462 6.20803L9.78839 6.20803C9.59591 6.20803 9.48722 6.31672 9.48722 6.51653L9.48722 7.06907C9.48722 7.26682 9.59591 7.37552 9.78839 7.37552ZM12.1468 7.37552L12.6993 7.37552C12.8971 7.37552 13.0058 7.26682 13.0058 7.06907L13.0058 6.51653C13.0058 6.31672 12.8971 6.20803 12.6993 6.20803L12.1468 6.20803C11.947 6.20803 11.8383 6.31672 11.8383 6.51653L11.8383 7.06907C11.8383 7.26682 11.947 7.37552 12.1468 7.37552ZM14.5052 7.37552L15.0557 7.37552C15.2555 7.37552 15.3642 7.26682 15.3642 7.06907L15.3642 6.51653C15.3642 6.31672 15.2555 6.20803 15.0557 6.20803L14.5052 6.20803C14.3054 6.20803 14.1967 6.31672 14.1967 6.51653L14.1967 7.06907C14.1967 7.26682 14.3054 7.37552 14.5052 7.37552ZM2.72052 9.72864L3.27834 9.72864C3.47814 9.72864 3.58156 9.61995 3.58156 9.42542L3.58156 8.86965C3.58156 8.67512 3.47814 8.56643 3.27834 8.56643L2.72052 8.56643C2.52804 8.56643 2.41935 8.67512 2.41935 8.86965L2.41935 9.42542C2.41935 9.61995 2.52804 9.72864 2.72052 9.72864ZM5.07892 9.72864L5.63673 9.72864C5.82921 9.72864 5.93791 9.61995 5.93791 9.42542L5.93791 8.86965C5.93791 8.67512 5.82921 8.56643 5.63673 8.56643L5.07892 8.56643C4.87911 8.56643 4.77042 8.67512 4.77042 8.86965L4.77042 9.42542C4.77042 9.61995 4.87911 9.72864 5.07892 9.72864ZM7.43731 9.72864L7.98781 9.72864C8.18761 9.72864 8.2963 9.61995 8.2963 9.42542L8.2963 8.86965C8.2963 8.67512 8.18761 8.56643 7.98781 8.56643L7.43731 8.56643C7.23751 8.56643 7.12882 8.67512 7.12882 8.86965L7.12882 9.42542C7.12882 9.61995 7.23751 9.72864 7.43731 9.72864ZM9.78839 9.72864L10.3462 9.72864C10.546 9.72864 10.6494 9.61995 10.6494 9.42542L10.6494 8.86965C10.6494 8.67512 10.546 8.56643 10.3462 8.56643L9.78839 8.56643C9.59591 8.56643 9.48722 8.67512 9.48722 8.86965L9.48722 9.42542C9.48722 9.61995 9.59591 9.72864 9.78839 9.72864ZM12.1468 9.72864L12.6993 9.72864C12.8971 9.72864 13.0058 9.61995 13.0058 9.42542L13.0058 8.86965C13.0058 8.67512 12.8971 8.56643 12.6993 8.56643L12.1468 8.56643C11.947 8.56643 11.8383 8.67512 11.8383 8.86965L11.8383 9.42542C11.8383 9.61995 11.947 9.72864 12.1468 9.72864ZM14.5052 9.72864L15.0557 9.72864C15.2555 9.72864 15.3642 9.61995 15.3642 9.42542L15.3642 8.86965C15.3642 8.67512 15.2555 8.56643 15.0557 8.56643L14.5052 8.56643C14.3054 8.56643 14.1967 8.67512 14.1967 8.86965L14.1967 9.42542C14.1967 9.61995 14.3054 9.72864 14.5052 9.72864ZM2.72052 12.087L3.27834 12.087C3.47814 12.087 3.58156 11.9783 3.58156 11.7785L3.58156 11.226C3.58156 11.0282 3.47814 10.9196 3.27834 10.9196L2.72052 10.9196C2.52804 10.9196 2.41935 11.0282 2.41935 11.226L2.41935 11.7785C2.41935 11.9783 2.52804 12.087 2.72052 12.087ZM5.09415 12.087L12.6841 12.087C12.8909 12.087 13.0058 11.9722 13.0058 11.7633L13.0058 11.2412C13.0058 11.0344 12.8909 10.9196 12.6841 10.9196L5.09415 10.9196C4.88526 10.9196 4.77042 11.0344 4.77042 11.2412L4.77042 11.7633C4.77042 11.9722 4.88526 12.087 5.09415 12.087ZM14.5052 12.087L15.0557 12.087C15.2555 12.087 15.3642 11.9783 15.3642 11.7785L15.3642 11.226C15.3642 11.0282 15.2555 10.9196 15.0557 10.9196L14.5052 10.9196C14.3054 10.9196 14.1967 11.0282 14.1967 11.226L14.1967 11.7785C14.1967 11.9783 14.3054 12.087 14.5052 12.087Z" fill="#ffffff" fill-opacity="0.85"/>
  <path d="M8.94493 18.3824C9.06183 18.3824 9.21712 18.3235 9.33607 18.2789L13.614 16.5425C13.7309 16.5033 13.7775 16.3946 13.7775 16.3316C13.7775 16.1804 13.6761 16.0594 13.5094 16.0594C13.4423 16.0594 13.3368 16.0934 13.2633 16.1224L8.78818 17.9414L9.10578 17.9414L4.63391 16.1224C4.56038 16.0934 4.459 16.0594 4.38986 16.0594C4.2293 16.0594 4.12178 16.1816 4.12178 16.3316C4.12178 16.3946 4.16631 16.5033 4.28526 16.5425L8.56112 18.2789C8.68418 18.3255 8.82481 18.3824 8.94493 18.3824Z" fill="#ffffff" fill-opacity="0.85"/>
 </g>
</svg>
