<?xml version="1.0" encoding="UTF-8"?>
<!--Generator: Apple Native CoreSVG 232.5-->
<!DOCTYPE svg
PUBLIC "-//W3C//DTD SVG 1.1//EN"
       "http://www.w3.org/Graphics/SVG/1.1/DTD/svg11.dtd">
<svg version="1.1" xmlns="http://www.w3.org/2000/svg" xmlns:xlink="http://www.w3.org/1999/xlink" width="18.5057" height="23.5062">
 <g>
  <rect height="23.5062" opacity="0" width="18.5057" x="0" y="0"/>
  <path d="M9.25744 0C8.97203 0 8.77651 0.210244 8.77651 0.47737L8.77651 19.3176L8.8212 22.3422L9.03857 22.2528L5.91952 19.0093L0.831332 13.9354C0.759726 13.8602 0.610423 13.8135 0.47026 13.8135C0.210244 13.8135 0 14.0126 0 14.2964C0 14.4366 0.050276 14.5478 0.154383 14.6555L8.89128 23.3538C8.99539 23.4523 9.11372 23.5062 9.25744 23.5062C9.40115 23.5062 9.51034 23.4523 9.61445 23.3538L18.364 14.6555C18.459 14.5478 18.5057 14.4366 18.5057 14.2964C18.5057 14.0126 18.2955 13.8135 18.0355 13.8135C17.8953 13.8135 17.7587 13.8602 17.6744 13.9354L12.5862 19.0093L9.46361 22.2528L9.68453 22.3422L9.73836 19.3176L9.73836 0.47737C9.73836 0.210244 9.5337 0 9.25744 0Z" fill="#000000"/>
 </g>
</svg>
