<?xml version="1.0" encoding="UTF-8"?>
<!--Generator: Apple Native CoreSVG 232.5-->
<!DOCTYPE svg
PUBLIC "-//W3C//DTD SVG 1.1//EN"
       "http://www.w3.org/Graphics/SVG/1.1/DTD/svg11.dtd">
<svg version="1.1" xmlns="http://www.w3.org/2000/svg" xmlns:xlink="http://www.w3.org/1999/xlink" width="21.1011" height="22.3819">
 <g>
  <rect height="22.3819" opacity="0" width="21.1011" x="0" y="0"/>
  <path d="M1.82357 22.3783L19.2776 22.3783C20.38 22.3783 21.1011 21.7801 21.1011 20.8818C21.1011 17.6429 17.0554 13.1782 10.5488 13.1782C4.04574 13.1782 0 17.6429 0 20.8818C0 21.7801 0.721097 22.3783 1.82357 22.3783ZM10.5798 10.8966C13.3514 10.8966 15.5208 8.49571 15.5208 5.38586C15.5208 2.44207 13.3148 0 10.5798 0C7.84469 0 5.62961 2.44715 5.62961 5.39297C5.62961 8.49571 7.80458 10.8966 10.5798 10.8966Z" fill="#000000"/>
 </g>
</svg>
