<?xml version="1.0" encoding="UTF-8"?>
<!--Generator: Apple Native CoreSVG 232.5-->
<!DOCTYPE svg
PUBLIC "-//W3C//DTD SVG 1.1//EN"
       "http://www.w3.org/Graphics/SVG/1.1/DTD/svg11.dtd">
<svg version="1.1" xmlns="http://www.w3.org/2000/svg" xmlns:xlink="http://www.w3.org/1999/xlink" width="24.9021" height="24.9057">
 <g>
  <rect height="24.9057" opacity="0" width="24.9021" x="0" y="0"/>
  <path d="M12.4465 24.893C19.2928 24.893 24.9021 19.2801 24.9021 12.4465C24.9021 5.60931 19.2893 0 12.4429 0C5.60931 0 0 5.60931 0 12.4465C0 19.2801 5.61286 24.893 12.4465 24.893Z" fill="#ffffff" fill-opacity="0.85"/>
  <path d="M5.28635 13.0686C4.70133 13.0686 4.56168 12.3617 5.09235 12.1108L18.006 6.04451C18.5956 5.76318 19.1115 6.19687 18.8063 6.83774L12.7268 19.7311C12.4978 20.2034 11.7655 20.1531 11.7655 19.497L11.7472 13.2534C11.7472 13.1458 11.6919 13.0813 11.5842 13.0813Z" fill="#1e1e1e"/>
 </g>
</svg>
