<?xml version="1.0" encoding="UTF-8"?>
<!--Generator: Apple Native CoreSVG 232.5-->
<!DOCTYPE svg
PUBLIC "-//W3C//DTD SVG 1.1//EN"
       "http://www.w3.org/Graphics/SVG/1.1/DTD/svg11.dtd">
<svg version="1.1" xmlns="http://www.w3.org/2000/svg" xmlns:xlink="http://www.w3.org/1999/xlink" width="41.6738" height="19.853">
 <g>
  <rect height="19.853" opacity="0" width="41.6738" x="0" y="0"/>
  <path d="M9.0599 9.82874C11.5888 9.82874 13.551 7.6558 13.551 4.84911C13.551 2.1902 11.5319 0 9.0599 0C6.55485 0 4.55406 2.21 4.55406 4.85267C4.55406 7.66849 6.54013 9.82874 9.0599 9.82874ZM1.87894 19.8408L16.1733 19.8408C17.42 19.8408 18.0614 19.2807 18.0614 18.3056C18.0614 15.4771 14.7723 11.4563 9.02892 11.4563C3.28911 11.4563 0 15.4771 0 18.3056C0 19.2807 0.628685 19.8408 1.87894 19.8408ZM32.6758 9.84651C35.2047 9.84651 37.1634 7.66443 37.1634 4.86689C37.1634 2.19883 35.1479 0.00863504 32.6758 0.00863504C30.1799 0.00863504 28.1664 2.22778 28.1664 4.87044C28.1664 7.68627 30.1525 9.84651 32.6758 9.84651ZM25.504 19.8494L39.7948 19.8494C41.0451 19.8494 41.6738 19.2893 41.6738 18.3143C41.6738 15.4858 38.3974 11.474 32.6448 11.474C26.9015 11.474 23.6251 15.4858 23.6251 18.3143C23.6251 19.2893 24.2538 19.8494 25.504 19.8494Z" fill="#ffffff" fill-opacity="0.85"/>
  <path d="M17.3906 9.68707C17.8045 9.68707 18.1351 9.35647 18.1351 8.9426C18.1351 8.53786 17.8045 8.20727 17.3906 8.20727C16.9859 8.20727 16.6553 8.53786 16.6553 8.9426C16.6553 9.35647 16.9859 9.68707 17.3906 9.68707ZM20.8468 9.68707C21.2515 9.68707 21.5821 9.35647 21.5821 8.9426C21.5821 8.53786 21.2515 8.20727 20.8468 8.20727C20.4329 8.20727 20.1023 8.53786 20.1023 8.9426C20.1023 9.35647 20.4329 9.68707 20.8468 9.68707ZM24.2867 9.68707C24.6915 9.68707 25.0221 9.35647 25.0221 8.9426C25.0221 8.53786 24.6915 8.20727 24.2867 8.20727C23.8729 8.20727 23.5423 8.53786 23.5423 8.9426C23.5423 9.35647 23.8729 9.68707 24.2867 9.68707Z" fill="#ffffff" fill-opacity="0.85"/>
 </g>
</svg>
