<?xml version="1.0" encoding="UTF-8"?>
<!--Generator: Apple Native CoreSVG 232.5-->
<!DOCTYPE svg
PUBLIC "-//W3C//DTD SVG 1.1//EN"
       "http://www.w3.org/Graphics/SVG/1.1/DTD/svg11.dtd">
<svg version="1.1" xmlns="http://www.w3.org/2000/svg" xmlns:xlink="http://www.w3.org/1999/xlink" width="28.0506" height="27.6583">
 <g>
  <rect height="27.6583" opacity="0" width="28.0506" x="0" y="0"/>
  <path d="M14.0207 26.2063C14.4239 26.2063 14.8418 26.1901 15.2303 26.1373L15.8717 27.3657C15.9875 27.6028 16.1535 27.6876 16.4816 27.6496C16.7807 27.6135 16.8777 27.482 16.9193 27.1702L17.126 25.8077C17.8979 25.6208 18.6662 25.3339 19.3817 24.9886L20.3872 25.889C20.5918 26.0718 20.7594 26.1099 21.0585 25.9722C21.2921 25.8438 21.3698 25.6797 21.3063 25.3552L21.0346 24.0365C21.6958 23.586 22.3168 23.0757 22.878 22.478L24.1226 22.998C24.376 23.1102 24.5436 23.1072 24.7848 22.8279C25.0098 22.6141 24.9859 22.4429 24.8265 22.1784L24.1018 21.0134C24.5741 20.365 24.9884 19.653 25.2987 18.9431L26.6774 19.0101C26.9801 19.0264 27.1279 18.9182 27.2147 18.641C27.3163 18.3601 27.2548 18.1925 27.0248 18.0077L25.9614 17.1525C26.1722 16.3934 26.2991 15.5905 26.3626 14.7679L27.658 14.3621C27.9607 14.2606 28.0506 14.1108 28.0506 13.8228C28.0506 13.5349 27.9607 13.3759 27.658 13.28L26.3626 12.8778C26.2991 12.0551 26.163 11.2558 25.9614 10.4931L27.0248 9.63795C27.2238 9.46224 27.2889 9.31649 27.2147 9.01739C27.1279 8.74013 26.9801 8.63196 26.6774 8.64821L25.2987 8.69899C24.9702 7.97079 24.5741 7.27509 24.1018 6.62865L24.8265 5.46372C24.9768 5.2154 24.9971 5.04426 24.7848 4.83047C24.5436 4.55118 24.376 4.55168 24.1226 4.66036L22.878 5.15852C22.3168 4.58267 21.6958 4.06877 21.0346 3.61834L21.3063 2.3031C21.3733 1.97505 21.2921 1.81102 21.0585 1.6861C20.7594 1.53578 20.6009 1.56473 20.3872 1.76024L19.3817 2.6479C18.6662 2.31732 17.8979 2.03752 17.126 1.84709L16.9193 0.488172C16.8777 0.176375 16.7588 0.0448469 16.4597 0.00879108C16.1535-0.0292949 15.9839 0.0555121 15.8717 0.279967L15.2303 1.51751C14.8418 1.47384 14.4239 1.45201 14.0207 1.45201C13.6322 1.45201 13.2361 1.47384 12.8294 1.51751L12.1936 0.279967C12.0722 0.0555121 11.9118-0.0292949 11.5781 0.00879108C11.2882 0.0448469 11.1876 0.176375 11.1404 0.488172L10.9393 1.8288C10.1674 2.03752 9.39353 2.29548 8.68361 2.6479L7.669 1.76938C7.45521 1.56473 7.28762 1.54848 7.0068 1.6861C6.76407 1.81102 6.68281 1.97505 6.75899 2.3031L7.02153 3.61834C6.36392 4.06877 5.73931 4.58267 5.18732 5.15852L3.94267 4.66036C3.68012 4.55168 3.5161 4.55118 3.27489 4.83047C3.05907 5.04426 3.07024 5.2154 3.22055 5.45458L3.96348 6.62865C3.49478 7.27509 3.08599 7.97079 2.75744 8.69899L1.38227 8.64821C1.07962 8.63196 0.946563 8.74013 0.841446 9.01739C0.730743 9.31649 0.804885 9.44396 1.04051 9.63795L2.10388 10.4931C1.90228 11.2558 1.75704 12.0551 1.70068 12.8559L0.398129 13.28C0.104612 13.3759 0 13.5166 0 13.8228C0 14.1199 0.104612 14.2606 0.398129 14.3621L1.70068 14.777C1.75704 15.5905 1.884 16.3934 2.10388 17.1525L1.04051 18.0077C0.823165 18.1707 0.752578 18.3292 0.841446 18.641C0.928283 18.9182 1.07962 19.0264 1.38227 19.0101L2.75744 18.9431C3.07685 19.653 3.49478 20.365 3.9452 21.0134L3.23883 22.1784C3.07024 22.4429 3.04992 22.6141 3.27489 22.8279C3.5161 23.1072 3.68012 23.1102 3.94267 22.998L5.18732 22.478C5.73931 23.0757 6.36392 23.586 7.02153 24.0365L6.75899 25.3552C6.68637 25.6797 6.76407 25.8438 7.0068 25.9722C7.29676 26.1099 7.45521 26.0718 7.669 25.889L8.66533 24.9886C9.39353 25.3339 10.1674 25.6208 10.9393 25.826L11.1404 27.1702C11.1876 27.482 11.2882 27.6135 11.5964 27.6496C11.9118 27.6876 12.0687 27.6028 12.1936 27.3657L12.8294 26.1373C13.2052 26.1901 13.6322 26.2063 14.0207 26.2063ZM14.0207 25.3039C7.66699 25.3039 2.70669 20.237 2.70669 13.8264C2.70669 7.41223 7.66699 2.35443 14.0207 2.35443C20.3744 2.35443 25.353 7.41223 25.353 13.8264C25.353 20.237 20.3744 25.3039 14.0207 25.3039ZM12.3017 11.7317L13.0437 11.3L8.31953 3.14151L7.56337 3.5554ZM16.6644 14.1692L26.1112 14.1692L26.1076 13.3175L16.6644 13.3175ZM13.2118 16.3106L12.4734 15.8719L7.57352 24.043L8.32612 24.464ZM14.041 16.6991C15.6315 16.6991 16.9158 15.4148 16.9158 13.8299C16.9158 12.2359 15.6315 10.9516 14.041 10.9516C12.4561 10.9516 11.1719 12.2359 11.1719 13.8299C11.1719 15.4148 12.4561 16.6991 14.041 16.6991ZM14.041 15.8139C12.9274 15.8139 12.057 14.94 12.057 13.8299C12.057 12.7107 12.9274 11.8368 14.041 11.8368C15.1602 11.8368 16.0306 12.7107 16.0306 13.8299C16.0306 14.94 15.1602 15.8139 14.041 15.8139Z" fill="#ffffff" fill-opacity="0.85"/>
 </g>
</svg>
